<svg xmlns="http://www.w3.org/2000/svg" viewBox="0 0 897 200" role="img" aria-label="Vanda Studio logo">
	<defs>
		<linearGradient id="vandaLogoGrad" gradientUnits="userSpaceOnUse" x1="132" y1="48" x2="272" y2="160">
			<stop offset="0" stop-color="#B83280" />
			<stop offset="0.55" stop-color="#D6568E" />
			<stop offset="1" stop-color="#F2719E" />
		</linearGradient>
		<filter id="vandaLogoSoftGlow" x="-20%" y="-20%" width="140%" height="140%" color-interpolation-filters="sRGB">
			<feDropShadow dx="0" dy="0" stdDeviation="4" flood-color="#D6568E" flood-opacity="0.45" />
		</filter>
	</defs>
	<g filter="url(#vandaLogoSoftGlow)">
		<g fill="url(#vandaLogoGrad)" transform="translate(202 100) scale(1.33)">
			<path d="M0,0 C -8,-14 -10,-31 0,-45 C 10,-31 8,-14 0,0 Z" transform="rotate(0)" />
			<path d="M0,0 C -8,-14 -10,-31 0,-45 C 10,-31 8,-14 0,0 Z" transform="rotate(60)" />
			<path d="M0,0 C -8,-14 -10,-31 0,-45 C 10,-31 8,-14 0,0 Z" transform="rotate(120)" />
			<path d="M0,0 C -8,-14 -10,-31 0,-45 C 10,-31 8,-14 0,0 Z" transform="rotate(180)" />
			<path d="M0,0 C -8,-14 -10,-31 0,-45 C 10,-31 8,-14 0,0 Z" transform="rotate(240)" />
			<path d="M0,0 C -8,-14 -10,-31 0,-45 C 10,-31 8,-14 0,0 Z" transform="rotate(300)" />
		</g>
		<circle cx="202" cy="100" r="8" fill="#FBEFF6" />
	</g>
	<text
		x="332"
		y="128"
		fill="#FFFFFF"
		font-family="Inter, ui-sans-serif, system-ui, -apple-system, BlinkMacSystemFont, 'Segoe UI', sans-serif"
		font-size="74"
		font-weight="750"
		letter-spacing="-3.4"
	>Vanda Studio</text>
</svg>
