<svg xmlns="http://www.w3.org/2000/svg" viewBox="0 0 100 100" role="img" aria-label="Vanda Studio mark white">
	<g fill="#FFFFFF">
		<path d="M0,0 C -8,-14 -10,-31 0,-45 C 10,-31 8,-14 0,0 Z" transform="translate(50,50) rotate(0)" />
		<path d="M0,0 C -8,-14 -10,-31 0,-45 C 10,-31 8,-14 0,0 Z" transform="translate(50,50) rotate(60)" />
		<path d="M0,0 C -8,-14 -10,-31 0,-45 C 10,-31 8,-14 0,0 Z" transform="translate(50,50) rotate(120)" />
		<path d="M0,0 C -8,-14 -10,-31 0,-45 C 10,-31 8,-14 0,0 Z" transform="translate(50,50) rotate(180)" />
		<path d="M0,0 C -8,-14 -10,-31 0,-45 C 10,-31 8,-14 0,0 Z" transform="translate(50,50) rotate(240)" />
		<path d="M0,0 C -8,-14 -10,-31 0,-45 C 10,-31 8,-14 0,0 Z" transform="translate(50,50) rotate(300)" />
	</g>
	<circle cx="50" cy="50" r="6" fill="#C9417C" />
</svg>
